<?xml version="1.0" encoding="utf-8"?>
<!-- Generator: Adobe Illustrator 23.0.2, SVG Export Plug-In . SVG Version: 6.00 Build 0)  -->
<svg version="1.1" id="Layer_1" xmlns="http://www.w3.org/2000/svg" xmlns:xlink="http://www.w3.org/1999/xlink" x="0px" y="0px"
	 viewBox="0 0 18 18" width="18px" height="18px" style="enable-background:new 0 0 18 18;" xml:space="preserve">
<style type="text/css">
	.st0{fill:#464646;}
</style>
<g>
	<g>
		<path class="st0" d="M17.8,0.2c-0.3-0.3-0.7-0.3-1,0L0.2,16.8c-0.3,0.3-0.3,0.7,0,1C0.4,17.9,0.5,18,0.7,18s0.4-0.1,0.5-0.2
			L17.8,1.2C18.1,1,18.1,0.5,17.8,0.2z"/>
	</g>
</g>
<g>
	<g>
		<path class="st0" d="M17.8,16.8L1.2,0.2c-0.3-0.3-0.7-0.3-1,0c-0.3,0.3-0.3,0.7,0,1l16.5,16.5c0.1,0.1,0.3,0.2,0.5,0.2
			s0.4-0.1,0.5-0.2C18.1,17.5,18.1,17,17.8,16.8z"/>
	</g>
</g>
</svg>
